# xmcd CD database file
#
# Track frame offsets:
#	150
#	17398
#	36065
#	49800
#	72564
#	88911
#	108942
#	128958
#	141665
#	168113
#	182296
#	201908
#	218511
#	237397
#	253667
#	270897
#	290388
#	310084
#
# Disc length: 4362 seconds
#
# Revision: 2
# Processed by: cddbd v1.5.2PL0 Copyright (c) Steve Scherf et al.
# Submitted via: CDex 1.50
#
DISCID=fd110812
DTITLE=Diverse Interpreten - Schlager Festival der 80er Jahre [CD1)
DYEAR=2002
DGENRE=Schlager
TTITLE0=Karat - Über sieben Brücken musst Du geh'n
TTITLE1=Roland Kaiser - Santa Maria
TTITLE2=Lena Valaitis - Johnny Blue
TTITLE3=Stefan Waggershausen - Hallo Engel
TTITLE4=Spider Murphy Gang - Skandal im Sperrbezirk
TTITLE5=Hanne Haller - Samstagabend
TTITLE6=Rex Gildo - Wenn ich je Deine Liebe verlier' 
TTITLE7=Katja Ebstein - Theater
TTITLE8=Dschinghis Khan - Rom
TTITLE9=Peter Alexander - Der Papa wird's schon richten
TTITLE10=Bernhard Brink - Du entschuldige, ich kenn' Dich
TTITLE11=Mike Krüger - Der Nippel
TTITLE12=Gottlieb Wendehals - Polonäse Blankenese
TTITLE13=Gitte Haenning - Freu Dich bloß nicht zu früh
TTITLE14=G.G.Anderson - Jim und Andy
TTITLE15=Nino de Angelo - Jenseits von Eden
TTITLE16=Rudi Carell - Wann wird's mal wieder richtig Sommer
TTITLE17=Thomas Anders - Wovon träumst Du denn
EXTD=Chronik eines Jahrzehnts YEAR: 2002
EXTT0=
EXTT1=
EXTT2=
EXTT3=
EXTT4=
EXTT5=
EXTT6=
EXTT7=
EXTT8=
EXTT9=
EXTT10=
EXTT11=
EXTT12=
EXTT13=
EXTT14=
EXTT15=
EXTT16=
EXTT17=
PLAYORDER=
